<svg xmlns:xlink="http://www.w3.org/1999/xlink" xmlns="http://www.w3.org/2000/svg" viewBox="0 0 15.35 15.36" width="16" height="16" tabind="-1">
                    <title>Clear Search</title>
                    <path fill="#E33B2A" d="M8.38 11.41c-.5-.5-.78-.52-1.33 0l-3.05 3.08c-1.18 1.18-1.7 1.18-3-.16s-1.18-2-.18-3l3.18-3.19a.69.69 0 0 0-.07-1.14l-3-3c-1-1-1.13-1.81 0-3s1.9-1.21 3.13 0l2.94 3a.66.66 0 0 0 1.11 0c.63-.65 2.49-2.51 3.28-3.35a1.46 1.46 0 0 1 2.3-.15c.24.24.47.42.89.84.86.86.94 1.57.05 2.46l-3.27 3.26c-.36.34-.52.58-.16.94l3.27 3.27c1.1 1.1 1.23 1.7.05 2.88l-.58.58a1.59 1.59 0 0 1-2.46-.21z"></path>
                </svg>